<svg xmlns="http://www.w3.org/2000/svg" viewBox="0 0 139.77 140.28"><path d="M44 126.57C31.46 114 19.72 102.83 8.72 91-3.47 77.91-2.7 60.84 9.94 48.1Q29.13 28.75 48.43 9.52C60.78-2.79 79.33-3.2 90.75 8.5c11.59 11.87 11.13 29.88-1.19 42.36S65 75.78 52.46 88.05c-9.76 9.59-13.91 20.46-8.94 33.88.36.97.25 2.07.48 4.64z" fill="#ebae9b"/><path d="M139.77 73.81c-.07 4.43-2.68 11.16-8.25 16.73C117.73 104.33 104 118.2 90.19 132c-8.66 8.61-19 10-30.32 6.6-8.53-2.59-10.93-9.68-11.8-17.3a28 28 0 0 1 8.31-24C68.94 84.73 81.42 72.1 94 59.58c4.24-4.22 8.18-8.58 9.81-14.52.91-3.35 3.13-4.16 6.39-4.24 16.1-.37 29.65 13.09 29.57 32.99z" fill="#badbd9"/></svg>